<mxfile host="app.diagrams.net" modified="2024-03-14T01:18:40.502Z" agent="Mozilla/5.0 (Windows NT 10.0; Win64; x64) AppleWebKit/537.36 (KHTML, like Gecko) Chrome/121.0.0.0 Safari/537.36 OPR/107.0.0.0" etag="o92qTJHAkHndwahQmsje" version="24.0.6" type="device">
  <diagram name="Página-1" id="MGG8p05S3FuEUuV-RSih">
    <mxGraphModel dx="1393" dy="804" grid="1" gridSize="10" guides="1" tooltips="1" connect="1" arrows="1" fold="1" page="1" pageScale="1" pageWidth="827" pageHeight="1169" math="0" shadow="0">
      <root>
        <mxCell id="0" />
        <mxCell id="1" parent="0" />
        <mxCell id="HhK40jPZKGonEEVOl8DW-3" value="" style="edgeStyle=orthogonalEdgeStyle;rounded=0;orthogonalLoop=1;jettySize=auto;html=1;" edge="1" parent="1" source="HhK40jPZKGonEEVOl8DW-1" target="HhK40jPZKGonEEVOl8DW-2">
          <mxGeometry relative="1" as="geometry" />
        </mxCell>
        <mxCell id="HhK40jPZKGonEEVOl8DW-1" value="INICIO" style="ellipse;whiteSpace=wrap;html=1;" vertex="1" parent="1">
          <mxGeometry x="340" y="80" width="120" height="80" as="geometry" />
        </mxCell>
        <mxCell id="HhK40jPZKGonEEVOl8DW-5" value="" style="edgeStyle=orthogonalEdgeStyle;rounded=0;orthogonalLoop=1;jettySize=auto;html=1;" edge="1" parent="1" source="HhK40jPZKGonEEVOl8DW-2" target="HhK40jPZKGonEEVOl8DW-4">
          <mxGeometry relative="1" as="geometry" />
        </mxCell>
        <mxCell id="HhK40jPZKGonEEVOl8DW-34" style="edgeStyle=orthogonalEdgeStyle;rounded=0;orthogonalLoop=1;jettySize=auto;html=1;exitX=0;exitY=0.5;exitDx=0;exitDy=0;entryX=0;entryY=0.5;entryDx=0;entryDy=0;" edge="1" parent="1" source="HhK40jPZKGonEEVOl8DW-2" target="HhK40jPZKGonEEVOl8DW-24">
          <mxGeometry relative="1" as="geometry">
            <mxPoint x="160" y="1280" as="targetPoint" />
            <Array as="points">
              <mxPoint x="160" y="230" />
              <mxPoint x="160" y="1275" />
            </Array>
          </mxGeometry>
        </mxCell>
        <mxCell id="HhK40jPZKGonEEVOl8DW-2" value="função ponteiro&lt;div&gt;(calcdesconto)&lt;/div&gt;" style="rounded=0;whiteSpace=wrap;html=1;" vertex="1" parent="1">
          <mxGeometry x="340" y="200" width="120" height="60" as="geometry" />
        </mxCell>
        <mxCell id="HhK40jPZKGonEEVOl8DW-7" value="" style="edgeStyle=orthogonalEdgeStyle;rounded=0;orthogonalLoop=1;jettySize=auto;html=1;" edge="1" parent="1" source="HhK40jPZKGonEEVOl8DW-4" target="HhK40jPZKGonEEVOl8DW-6">
          <mxGeometry relative="1" as="geometry" />
        </mxCell>
        <mxCell id="HhK40jPZKGonEEVOl8DW-4" value="insira o preço&lt;div&gt;(scanf)&lt;/div&gt;" style="shape=manualInput;whiteSpace=wrap;html=1;" vertex="1" parent="1">
          <mxGeometry x="360" y="300" width="80" height="80" as="geometry" />
        </mxCell>
        <mxCell id="HhK40jPZKGonEEVOl8DW-9" value="" style="edgeStyle=orthogonalEdgeStyle;rounded=0;orthogonalLoop=1;jettySize=auto;html=1;" edge="1" parent="1" source="HhK40jPZKGonEEVOl8DW-6" target="HhK40jPZKGonEEVOl8DW-8">
          <mxGeometry relative="1" as="geometry" />
        </mxCell>
        <mxCell id="HhK40jPZKGonEEVOl8DW-6" value="armazene o preço&lt;div&gt;na variavel&lt;/div&gt;" style="shape=parallelogram;perimeter=parallelogramPerimeter;whiteSpace=wrap;html=1;fixedSize=1;" vertex="1" parent="1">
          <mxGeometry x="340" y="420" width="120" height="60" as="geometry" />
        </mxCell>
        <mxCell id="HhK40jPZKGonEEVOl8DW-13" value="" style="edgeStyle=orthogonalEdgeStyle;rounded=0;orthogonalLoop=1;jettySize=auto;html=1;" edge="1" parent="1" source="HhK40jPZKGonEEVOl8DW-8" target="HhK40jPZKGonEEVOl8DW-12">
          <mxGeometry relative="1" as="geometry" />
        </mxCell>
        <mxCell id="HhK40jPZKGonEEVOl8DW-8" value="printf \n" style="rounded=0;whiteSpace=wrap;html=1;" vertex="1" parent="1">
          <mxGeometry x="340" y="524.5" width="120" height="60" as="geometry" />
        </mxCell>
        <mxCell id="HhK40jPZKGonEEVOl8DW-19" value="" style="edgeStyle=orthogonalEdgeStyle;rounded=0;orthogonalLoop=1;jettySize=auto;html=1;" edge="1" parent="1" source="HhK40jPZKGonEEVOl8DW-12" target="HhK40jPZKGonEEVOl8DW-18">
          <mxGeometry relative="1" as="geometry" />
        </mxCell>
        <mxCell id="HhK40jPZKGonEEVOl8DW-12" value="mostrar valor do&lt;div&gt;preço&lt;/div&gt;" style="shape=document;whiteSpace=wrap;html=1;boundedLbl=1;" vertex="1" parent="1">
          <mxGeometry x="340" y="630" width="120" height="80" as="geometry" />
        </mxCell>
        <mxCell id="HhK40jPZKGonEEVOl8DW-21" value="" style="edgeStyle=orthogonalEdgeStyle;rounded=0;orthogonalLoop=1;jettySize=auto;html=1;" edge="1" parent="1" source="HhK40jPZKGonEEVOl8DW-14" target="HhK40jPZKGonEEVOl8DW-16">
          <mxGeometry relative="1" as="geometry" />
        </mxCell>
        <mxCell id="HhK40jPZKGonEEVOl8DW-14" value="armazene o&lt;div&gt;desconto&lt;/div&gt;&lt;div&gt;na variavel&lt;/div&gt;" style="shape=parallelogram;perimeter=parallelogramPerimeter;whiteSpace=wrap;html=1;fixedSize=1;" vertex="1" parent="1">
          <mxGeometry x="340" y="890" width="120" height="60" as="geometry" />
        </mxCell>
        <mxCell id="HhK40jPZKGonEEVOl8DW-23" value="" style="edgeStyle=orthogonalEdgeStyle;rounded=0;orthogonalLoop=1;jettySize=auto;html=1;" edge="1" parent="1" source="HhK40jPZKGonEEVOl8DW-16" target="HhK40jPZKGonEEVOl8DW-22">
          <mxGeometry relative="1" as="geometry" />
        </mxCell>
        <mxCell id="HhK40jPZKGonEEVOl8DW-16" value="printf \n" style="rounded=0;whiteSpace=wrap;html=1;" vertex="1" parent="1">
          <mxGeometry x="340" y="1000" width="120" height="60" as="geometry" />
        </mxCell>
        <mxCell id="HhK40jPZKGonEEVOl8DW-20" value="" style="edgeStyle=orthogonalEdgeStyle;rounded=0;orthogonalLoop=1;jettySize=auto;html=1;" edge="1" parent="1" source="HhK40jPZKGonEEVOl8DW-18" target="HhK40jPZKGonEEVOl8DW-14">
          <mxGeometry relative="1" as="geometry" />
        </mxCell>
        <mxCell id="HhK40jPZKGonEEVOl8DW-18" value="insira o desconto&lt;div&gt;(scanf)&lt;/div&gt;" style="shape=manualInput;whiteSpace=wrap;html=1;" vertex="1" parent="1">
          <mxGeometry x="360" y="760" width="80" height="80" as="geometry" />
        </mxCell>
        <mxCell id="HhK40jPZKGonEEVOl8DW-25" value="" style="edgeStyle=orthogonalEdgeStyle;rounded=0;orthogonalLoop=1;jettySize=auto;html=1;" edge="1" parent="1" source="HhK40jPZKGonEEVOl8DW-22" target="HhK40jPZKGonEEVOl8DW-24">
          <mxGeometry relative="1" as="geometry" />
        </mxCell>
        <mxCell id="HhK40jPZKGonEEVOl8DW-22" value="mostrar desconto" style="shape=document;whiteSpace=wrap;html=1;boundedLbl=1;" vertex="1" parent="1">
          <mxGeometry x="340" y="1110" width="120" height="80" as="geometry" />
        </mxCell>
        <mxCell id="HhK40jPZKGonEEVOl8DW-27" value="" style="edgeStyle=orthogonalEdgeStyle;rounded=0;orthogonalLoop=1;jettySize=auto;html=1;" edge="1" parent="1" source="HhK40jPZKGonEEVOl8DW-24" target="HhK40jPZKGonEEVOl8DW-26">
          <mxGeometry relative="1" as="geometry" />
        </mxCell>
        <mxCell id="HhK40jPZKGonEEVOl8DW-24" value="Chaama a função&lt;div&gt;&quot;caldesconto&quot;&lt;/div&gt;&lt;div&gt;e ele usa as novas variaveis&lt;/div&gt;" style="shape=process;whiteSpace=wrap;html=1;backgroundOutline=1;" vertex="1" parent="1">
          <mxGeometry x="335" y="1240" width="130" height="70" as="geometry" />
        </mxCell>
        <mxCell id="HhK40jPZKGonEEVOl8DW-29" value="" style="edgeStyle=orthogonalEdgeStyle;rounded=0;orthogonalLoop=1;jettySize=auto;html=1;" edge="1" parent="1" source="HhK40jPZKGonEEVOl8DW-26" target="HhK40jPZKGonEEVOl8DW-28">
          <mxGeometry relative="1" as="geometry" />
        </mxCell>
        <mxCell id="HhK40jPZKGonEEVOl8DW-26" value="armazena na variavel&lt;div&gt;DescontoFinal&lt;/div&gt;" style="shape=parallelogram;perimeter=parallelogramPerimeter;whiteSpace=wrap;html=1;fixedSize=1;" vertex="1" parent="1">
          <mxGeometry x="530" y="1360" width="150" height="60" as="geometry" />
        </mxCell>
        <mxCell id="HhK40jPZKGonEEVOl8DW-31" value="" style="edgeStyle=orthogonalEdgeStyle;rounded=0;orthogonalLoop=1;jettySize=auto;html=1;" edge="1" parent="1" source="HhK40jPZKGonEEVOl8DW-28" target="HhK40jPZKGonEEVOl8DW-30">
          <mxGeometry relative="1" as="geometry" />
        </mxCell>
        <mxCell id="HhK40jPZKGonEEVOl8DW-28" value="printf \n" style="whiteSpace=wrap;html=1;" vertex="1" parent="1">
          <mxGeometry x="340" y="1360" width="120" height="60" as="geometry" />
        </mxCell>
        <mxCell id="HhK40jPZKGonEEVOl8DW-33" value="" style="edgeStyle=orthogonalEdgeStyle;rounded=0;orthogonalLoop=1;jettySize=auto;html=1;" edge="1" parent="1" source="HhK40jPZKGonEEVOl8DW-30" target="HhK40jPZKGonEEVOl8DW-32">
          <mxGeometry relative="1" as="geometry" />
        </mxCell>
        <mxCell id="HhK40jPZKGonEEVOl8DW-30" value="Mostrar preço, desconto aplicado e o valor final&amp;nbsp;" style="shape=document;whiteSpace=wrap;html=1;boundedLbl=1;" vertex="1" parent="1">
          <mxGeometry x="340" y="1490" width="120" height="80" as="geometry" />
        </mxCell>
        <mxCell id="HhK40jPZKGonEEVOl8DW-32" value="FINAL" style="ellipse;whiteSpace=wrap;html=1;" vertex="1" parent="1">
          <mxGeometry x="340" y="1640" width="120" height="80" as="geometry" />
        </mxCell>
      </root>
    </mxGraphModel>
  </diagram>
</mxfile>
